FFmpeg version SVN-r25716, Copyright (c) 2000-2010 the FFmpeg developers  built on Nov 10 2010 12:23:18 with gcc 4.1.2 20080704 (Red Hat 4.1.2-48)  configuration: --enable-libmp3lame --enable-shared --disable-mmx --arch=x86_64  libavutil     50.33. 0 / 50.33. 0  libavcore      0.12. 1 /  0.12. 1  libavcodec    52.94. 4 / 52.94. 4  libavformat   52.84. 0 / 52.84. 0  libavdevice   52. 2. 2 / 52. 2. 2  libavfilter    1.59. 0 /  1.59. 0  libswscale     0.12. 0 /  0.12. 0Input #0, avi, from '/RAID10/data/converted_video_files/11962.avi':  Duration: 00:00:57.10, start: 0.000000, bitrate: 11604 kb/s    Stream #0.0: Video: mpeg4, yuv420p, 720x480 [PAR 1:1 DAR 3:2], 25 tbr, 30 tbn, 25 tbc[buffer @ 0x153ebd40] w:720 h:480 pixfmt:yuv420pOutput #0, flv, to '/RAID10/data/converted_video_files/11962.flv':  Metadata:    encoder         : Lavf52.84.0    Stream #0.0: Video: flv, yuv420p, 720x480 [PAR 1:1 DAR 3:2], q=2-31, 600 kb/s, 1k tbn, 24 tbcStream mapping:  Stream #0.0 -> #0.0Press [q] to stop encodingframe=   32 fps=  0 q=16.4 size=     263kB time=1.37 bitrate=1567.6kbits/s dup=0 drop=8    frame=   69 fps= 66 q=31.0 size=     406kB time=2.92 bitrate=1138.9kbits/s dup=0 drop=17    frame=  106 fps= 68 q=29.3 size=     532kB time=4.46 bitrate= 978.2kbits/s dup=0 drop=26    frame=  144 fps= 70 q=31.0 size=     661kB time=6.04 bitrate= 896.1kbits/s dup=0 drop=36    frame=  179 fps= 70 q=31.0 size=     826kB time=7.50 bitrate= 902.7kbits/s dup=0 drop=45    frame=  220 fps= 72 q=31.0 size=     932kB time=9.21 bitrate= 829.0kbits/s dup=0 drop=55    frame=  260 fps= 73 q=30.9 size=    1051kB time=10.87 bitrate= 791.5kbits/s dup=0 drop=65    frame=  302 fps= 74 q=29.4 size=    1153kB time=12.62 bitrate= 748.1kbits/s dup=0 drop=75    frame=  343 fps= 75 q=31.0 size=    1285kB time=14.33 bitrate= 734.3kbits/s dup=0 drop=85    frame=  386 fps= 76 q=22.3 size=    1382kB time=16.12 bitrate= 702.2kbits/s dup=0 drop=96    frame=  428 fps= 76 q=29.6 size=    1514kB time=17.87 bitrate= 693.7kbits/s dup=0 drop=107    frame=  468 fps= 77 q=31.0 size=    1644kB time=19.54 bitrate= 689.2kbits/s dup=0 drop=117    frame=  509 fps= 77 q=24.1 size=    1752kB time=21.25 bitrate= 675.3kbits/s dup=0 drop=127    frame=  550 fps= 77 q=24.3 size=    1876kB time=22.96 bitrate= 669.3kbits/s dup=0 drop=138    frame=  591 fps= 78 q=22.2 size=    1990kB time=24.67 bitrate= 660.7kbits/s dup=0 drop=148    frame=  632 fps= 78 q=22.7 size=    2117kB time=26.37 bitrate= 657.4kbits/s dup=0 drop=158    frame=  672 fps= 78 q=25.4 size=    2234kB time=28.04 bitrate= 652.7kbits/s dup=0 drop=168    frame=  710 fps= 78 q=24.2 size=    2370kB time=29.62 bitrate= 655.3kbits/s dup=0 drop=177    frame=  753 fps= 78 q=19.8 size=    2487kB time=31.42 bitrate= 648.4kbits/s dup=0 drop=188    frame=  795 fps= 78 q=21.4 size=    2600kB time=33.17 bitrate= 642.1kbits/s dup=0 drop=198    frame=  836 fps= 78 q=18.8 size=    2718kB time=34.87 bitrate= 638.4kbits/s dup=0 drop=209    frame=  876 fps= 78 q=18.5 size=    2837kB time=36.54 bitrate= 636.0kbits/s dup=0 drop=219    frame=  917 fps= 78 q=18.5 size=    2958kB time=38.25 bitrate= 633.5kbits/s dup=0 drop=229    frame=  955 fps= 78 q=18.9 size=    3080kB time=39.83 bitrate= 633.5kbits/s dup=0 drop=238    frame=  997 fps= 79 q=18.8 size=    3200kB time=41.58 bitrate= 630.5kbits/s dup=0 drop=249    frame= 1035 fps= 78 q=20.0 size=    3332kB time=43.17 bitrate= 632.3kbits/s dup=0 drop=258    frame= 1072 fps= 78 q=19.9 size=    3456kB time=44.71 bitrate= 633.2kbits/s dup=0 drop=268    frame= 1114 fps= 78 q=18.0 size=    3581kB time=46.46 bitrate= 631.5kbits/s dup=0 drop=278    frame= 1157 fps= 79 q=17.2 size=    3698kB time=48.25 bitrate= 627.8kbits/s dup=0 drop=289    frame= 1198 fps= 79 q=17.1 size=    3823kB time=49.96 bitrate= 626.8kbits/s dup=0 drop=299    frame= 1242 fps= 79 q=13.4 size=    3954kB time=51.79 bitrate= 625.4kbits/s dup=0 drop=310    frame= 1280 fps= 79 q=17.1 size=    4065kB time=53.37 bitrate= 623.8kbits/s dup=0 drop=320    frame= 1321 fps= 79 q=17.8 size=    4185kB time=55.08 bitrate= 622.3kbits/s dup=0 drop=330    frame= 1356 fps= 79 q=18.0 size=    4295kB time=56.54 bitrate= 622.3kbits/s dup=0 drop=339    frame= 1371 fps= 79 q=17.2 Lsize=    4339kB time=57.17 bitrate= 621.7kbits/s dup=0 drop=342    video:4317kB audio:0kB global headers:0kB muxing overhead 0.500956%